<svg xmlns="http://www.w3.org/2000/svg" width="512" height="768" viewBox="0 0 512 768">
  <defs><linearGradient id="g" x1="0" y1="0" x2="0" y2="1"><stop offset="0" stop-color="#A8DDF6"/><stop offset="1" stop-color="#6AAAD8"/></linearGradient></defs>
  <path d="M190 270 Q256 230 322 270 L350 348 L318 370 L304 338 L350 590 Q256 630 162 590 L208 338 L194 370 L162 348 Z" fill="url(#g)" stroke="#6E4A2C" stroke-width="8" stroke-linejoin="round"/><path d="M210 284 Q256 260 302 284" fill="none" stroke="#FFFFFF" stroke-width="7" stroke-linecap="round" opacity="0.55"/><path d="M250 376 l7 14 15 2-11 10 3 15-14-8-14 8 3-15-11-10 15-2z" fill="#FFE8A8"/><circle cx="286" cy="452" r="6" fill="#FFFFFF"/><circle cx="226" cy="502" r="5" fill="#FFFFFF"/>
</svg>
